<svg width="56" height="56" viewBox="0 0 56 56" fill="none" xmlns="http://www.w3.org/2000/svg">
<path d="M22.71 23.2099C23.6504 23.2198 24.5668 23.5074 25.3442 24.0366C26.1216 24.5659 26.7252 25.3131 27.0792 26.1843C27.4331 27.0556 27.5217 28.0121 27.3336 28.9335C27.1456 29.8549 26.6894 30.7002 26.0223 31.3631C25.3553 32.026 24.5071 32.4769 23.5846 32.6592C22.662 32.8415 21.7061 32.747 20.837 32.3876C19.968 32.0282 19.2246 31.42 18.7002 30.6393C18.1759 29.8586 17.894 28.9404 17.89 28C17.8913 27.3688 18.0171 26.744 18.2602 26.1615C18.5032 25.579 18.8588 25.0501 19.3065 24.6052C19.7542 24.1603 20.2853 23.808 20.8693 23.5686C21.4533 23.3292 22.0788 23.2073 22.71 23.2099V23.2099ZM46.08 18.7999L38.38 23.2099V18.75C38.3616 17.0842 37.6862 15.4931 36.5008 14.3227C35.3154 13.1523 33.7158 12.4972 32.05 12.5H13.33C11.6626 12.492 10.06 13.1453 8.87345 14.3169C7.68691 15.4884 7.01321 17.0826 7 18.75V37.2C7.01575 38.8711 7.68866 40.4689 8.87321 41.6479C10.0578 42.8268 11.6588 43.4921 13.33 43.5H32C33.6666 43.5053 35.2677 42.8511 36.4537 41.6801C37.6396 40.5091 38.3142 38.9165 38.33 37.25V35.63L46 40.0499C46.2995 40.2231 46.6388 40.3156 46.9847 40.3184C47.3307 40.3212 47.6714 40.2342 47.9737 40.0659C48.276 39.8977 48.5294 39.6539 48.7093 39.3584C48.8892 39.0629 48.9894 38.7257 49 38.38V20.4599C49.0038 20.1172 48.9157 19.7797 48.7449 19.4825C48.5742 19.1853 48.327 18.9392 48.029 18.7698C47.731 18.6004 47.3931 18.5138 47.0504 18.5191C46.7077 18.5244 46.3726 18.6214 46.08 18.7999V18.7999ZM24.48 35C17.67 35.7 13.02 32.59 11.16 28C13.02 23.36 17.67 20.26 24.48 21C30.23 21.57 33.16 24.54 34.22 28C33.2 31.52 30.23 34.45 24.48 35Z" fill="#7483FF"/>
</svg>
