<svg width="56" height="56" viewBox="0 0 56 56" fill="none" xmlns="http://www.w3.org/2000/svg">
<path d="M43.24 18.56H36.57V12.79C36.5808 12.3275 36.408 11.8796 36.0894 11.5442C35.7708 11.2087 35.3324 11.0131 34.87 11H20.17C19.9415 11.0065 19.7165 11.0579 19.5078 11.1514C19.2992 11.2449 19.111 11.3785 18.9541 11.5448C18.7971 11.711 18.6745 11.9066 18.5931 12.1202C18.5118 12.3339 18.4733 12.5615 18.48 12.79V18.56H12.76C11.4976 18.56 10.2869 19.0615 9.39418 19.9542C8.50151 20.8468 8.00001 22.0576 8.00001 23.32V40.23C7.9987 40.8559 8.12085 41.476 8.35947 42.0546C8.59809 42.6333 8.9485 43.1592 9.39064 43.6023C9.83278 44.0454 10.358 44.3969 10.9361 44.6367C11.5143 44.8765 12.1341 45 12.76 45H43.24C43.8659 45 44.4857 44.8765 45.0639 44.6367C45.6421 44.3969 46.1672 44.0454 46.6094 43.6023C47.0515 43.1592 47.4019 42.6333 47.6406 42.0546C47.8792 41.476 48.0013 40.8559 48 40.23V23.32C48 22.0576 47.4985 20.8468 46.6058 19.9542C45.7132 19.0615 44.5024 18.56 43.24 18.56V18.56ZM33.17 14.56V18.56H21.87V14.56H33.17ZM28.17 40C26.664 40.002 25.1914 39.5571 23.9384 38.7217C22.6854 37.8862 21.7084 36.6978 21.1312 35.3068C20.554 33.9159 20.4024 32.3849 20.6958 30.9078C20.9891 29.4307 21.7141 28.0738 22.7789 27.0089C23.8438 25.944 25.2007 25.2191 26.6778 24.9257C28.155 24.6324 29.6859 24.784 31.0769 25.3612C32.4678 25.9384 33.6562 26.9154 34.4917 28.1684C35.3271 29.4213 35.772 30.894 35.77 32.4C35.7713 33.3984 35.5756 34.3873 35.1942 35.31C34.8127 36.2326 34.2529 37.071 33.547 37.7769C32.841 38.4829 32.0026 39.0427 31.08 39.4242C30.1573 39.8056 29.1684 40.0013 28.17 40V40ZM33.17 31.88V32.68C33.1599 32.9862 33.0331 33.2768 32.8155 33.4925C32.598 33.7082 32.3062 33.8325 32 33.84H30.1V35.72C30.1 35.8771 30.0689 36.0327 30.0085 36.1777C29.9481 36.3227 29.8595 36.4544 29.7479 36.565C29.6364 36.6756 29.504 36.7631 29.3585 36.8223C29.2129 36.8815 29.0571 36.9113 28.9 36.91H28.1C27.9429 36.9113 27.7871 36.8815 27.6415 36.8223C27.496 36.7631 27.3636 36.6756 27.2521 36.565C27.1405 36.4544 27.052 36.3227 26.9915 36.1777C26.9311 36.0327 26.9 35.8771 26.9 35.72V33.84H25C24.6835 33.84 24.3798 33.715 24.155 33.4921C23.9302 33.2692 23.8026 32.9665 23.8 32.65V31.85C23.8026 31.5335 23.9302 31.2308 24.155 31.0079C24.3798 30.785 24.6835 30.66 25 30.66H26.91V28.78C26.91 28.6229 26.9411 28.4673 27.0015 28.3223C27.062 28.1773 27.1505 28.0456 27.2621 27.935C27.3736 27.8244 27.506 27.7369 27.6515 27.6777C27.7971 27.6185 27.9529 27.5887 28.11 27.59H28.91C29.0671 27.5887 29.2229 27.6185 29.3685 27.6777C29.514 27.7369 29.6464 27.8244 29.7579 27.935C29.8695 28.0456 29.9581 28.1773 30.0185 28.3223C30.0789 28.4673 30.11 28.6229 30.11 28.78V30.66H32C32.3131 30.6652 32.6117 30.7926 32.8322 31.0149C33.0526 31.2372 33.1774 31.5369 33.18 31.85L33.17 31.88Z" fill="#7483FF"/>
</svg>
