<svg width="56" height="56" viewBox="0 0 56 56" fill="none" xmlns="http://www.w3.org/2000/svg">
<path d="M41.5399 9.5C42.5173 9.5 43.4728 9.78998 44.2854 10.3332C45.098 10.8765 45.7312 11.6486 46.1048 12.5519C46.4784 13.4551 46.5756 14.4489 46.3842 15.4074C46.1928 16.366 45.7213 17.2462 45.0294 17.9366C44.3376 18.6271 43.4564 19.0968 42.4975 19.2863C41.5386 19.4758 40.545 19.3765 39.6425 19.0011C38.74 18.6257 37.9692 17.9909 37.4275 17.1772C36.8859 16.3635 36.5979 15.4075 36.5999 14.43C36.6025 13.1216 37.1242 11.8676 38.0503 10.9434C38.9764 10.0191 40.2314 9.5 41.5399 9.5V9.5ZM52.7799 17C52.5504 16.7696 52.2777 16.5868 51.9774 16.4621C51.677 16.3373 51.3551 16.2731 51.0299 16.2731C50.7047 16.2731 50.3827 16.3373 50.0824 16.4621C49.7821 16.5868 49.5094 16.7696 49.2799 17L44.4399 21.82H38.8599L33.9199 16.9C33.4538 16.4395 32.825 16.1813 32.1699 16.1813C31.5147 16.1813 30.8859 16.4395 30.4199 16.9C30.1898 17.1286 30.0072 17.4005 29.8826 17.7C29.758 17.9995 29.6938 18.3206 29.6938 18.645C29.6938 18.9694 29.758 19.2905 29.8826 19.59C30.0072 19.8895 30.1898 20.1614 30.4199 20.39L35.3599 25.32V44C35.3599 44.663 35.6233 45.2989 36.0921 45.7678C36.5609 46.2366 37.1968 46.5 37.8599 46.5C38.5229 46.5 39.1588 46.2366 39.6276 45.7678C40.0965 45.2989 40.3599 44.663 40.3599 44V36.6H42.8299V44C42.8699 44.6292 43.1481 45.2196 43.6078 45.651C44.0676 46.0825 44.6744 46.3226 45.3049 46.3226C45.9354 46.3226 46.5422 46.0825 47.0019 45.651C47.4617 45.2196 47.7399 44.6292 47.7799 44V25.53L52.8299 20.53C53.0628 20.2974 53.2467 20.0204 53.3707 19.7154C53.4946 19.4104 53.5561 19.0836 53.5514 18.7544C53.5467 18.4252 53.476 18.1003 53.3435 17.799C53.211 17.4976 53.0193 17.2259 52.7799 17V17ZM9.39988 14.43C9.45714 15.703 10.0031 16.9049 10.9242 17.7855C11.8453 18.6661 13.0706 19.1576 14.3449 19.1576C15.6192 19.1576 16.8444 18.6661 17.7655 17.7855C18.6866 16.9049 19.2326 15.703 19.2899 14.43C19.2872 13.5761 19.0595 12.738 18.6299 12H22.9999C22.9961 11.4071 22.7793 10.8354 22.3889 10.3892C21.9985 9.94296 21.4607 9.65204 20.8736 9.56956C20.2865 9.48707 19.6893 9.61852 19.191 9.93989C18.6928 10.2613 18.3268 10.7511 18.1599 11.32C17.6954 10.76 17.1131 10.3093 16.4546 9.99989C15.7961 9.69052 15.0775 9.53013 14.3499 9.53013C13.6223 9.53013 12.9037 9.69052 12.2451 9.99989C11.5866 10.3093 11.0044 10.76 10.5399 11.32C10.3729 10.7511 10.0069 10.2613 9.5087 9.93989C9.01048 9.61852 8.41329 9.48707 7.82618 9.56956C7.23907 9.65204 6.70121 9.94296 6.31084 10.3892C5.92046 10.8354 5.7036 11.4071 5.69988 12H10.0699C9.63716 12.7372 9.40608 13.5752 9.39988 14.43ZM25.5799 17C25.3504 16.7696 25.0777 16.5868 24.7774 16.4621C24.477 16.3373 24.1551 16.2731 23.8299 16.2731C23.5047 16.2731 23.1827 16.3373 22.8824 16.4621C22.5821 16.5868 22.3094 16.7696 22.0799 17L17.2499 21.82H11.6699L6.71988 16.9C6.25707 16.4359 5.62885 16.1746 4.97341 16.1737C4.31797 16.1727 3.689 16.4322 3.22488 16.895C2.76075 17.3578 2.49948 17.986 2.49854 18.6415C2.4976 19.2969 2.75707 19.9259 3.21988 20.39L7.72988 24.89L5.69988 39.1H8.16988V44C8.16988 44.6551 8.43011 45.2833 8.89332 45.7466C9.35654 46.2098 9.98479 46.47 10.6399 46.47C11.295 46.47 11.9232 46.2098 12.3864 45.7466C12.8496 45.2833 13.1099 44.6551 13.1099 44V39.1H15.5899V44C15.5899 44.6551 15.8501 45.2833 16.3133 45.7466C16.7765 46.2098 17.4048 46.47 18.0599 46.47C18.715 46.47 19.3432 46.2098 19.8064 45.7466C20.2696 45.2833 20.5299 44.6551 20.5299 44V39.1H22.9999L20.9999 25.1L25.5899 20.52C25.8264 20.2916 26.0143 20.0178 26.1423 19.715C26.2703 19.4122 26.3358 19.0866 26.3349 18.7579C26.334 18.4291 26.2666 18.1039 26.1369 17.8018C26.0071 17.4998 25.8177 17.227 25.5799 17Z" fill="#7483FF"/>
</svg>
